HIERARCHY
ROOT Hips
{
    OFFSET 0.000000 0.000000 0.000000
    CHANNELS 6 Xposition Yposition Zposition Zrotation Xrotation Yrotation
    JOINT Spine
    {
        OFFSET -0.000000 7.236184 0.000000
        CHANNELS 3 Zrotation Xrotation Yrotation
        JOINT Spine1
        {
            OFFSET -0.000000 20.420147 0.000000
            CHANNELS 3 Zrotation Xrotation Yrotation
            JOINT Neck
            {
                OFFSET -0.000000 20.336288 1.848754
                CHANNELS 3 Zrotation Xrotation Yrotation
                JOINT Head
                {
                    OFFSET -0.000000 12.354461 -1.764923
                    CHANNELS 3 Zrotation Xrotation Yrotation
                    End Site
                    {
                        OFFSET -0.000000 22.061537 0.000000
                    }
                }
            }
            JOINT LeftShoulder
            {
                OFFSET 3.573296 18.396038 -0.314103
                CHANNELS 3 Zrotation Xrotation Yrotation
                JOINT LeftArm
                {
                    OFFSET 10.880760 0.000000 0.000000
                    CHANNELS 3 Zrotation Xrotation Yrotation
                    JOINT LeftForeArm
                    {
                        OFFSET 27.185530 0.000000 0.000000
                        CHANNELS 3 Zrotation Xrotation Yrotation
                        JOINT LeftHand
                        {
                            OFFSET 27.825975 0.000000 0.000000
                            CHANNELS 3 Zrotation Xrotation Yrotation
                            End Site
                            {
                                OFFSET 13.236923 0.000000 0.000000
                            }
                        }
                    }
                }
            }
            JOINT RightShoulder
            {
                OFFSET -3.474926 18.396038 -0.314103
                CHANNELS 3 Zrotation Xrotation Yrotation
                JOINT RightArm
                {
                    OFFSET -10.880760 0.000000 0.000000
                    CHANNELS 3 Zrotation Xrotation Yrotation
                    JOINT RightForeArm
                    {
                        OFFSET -27.185530 0.000000 0.000000
                        CHANNELS 3 Zrotation Xrotation Yrotation
                        JOINT RightHand
                        {
                            OFFSET -27.825975 0.000000 0.000000
                            CHANNELS 3 Zrotation Xrotation Yrotation
                            End Site
                            {
                                OFFSET -13.236923 0.000000 0.000000
                            }
                        }
                    }
                }
            }
        }
    }
    JOINT LeftUpLeg
    {
        OFFSET 8.824615 0.000000 0.000000
        CHANNELS 3 Zrotation Xrotation Yrotation
        JOINT LeftLeg
        {
            OFFSET -0.000000 -35.111282 0.000000
            CHANNELS 3 Zrotation Xrotation Yrotation
            JOINT LeftFoot
            {
                OFFSET -0.000000 -42.324711 0.000000
                CHANNELS 3 Zrotation Xrotation Yrotation
                JOINT LeftToeBase
                {
                    OFFSET -0.000000 -5.735999 13.236923
                    CHANNELS 3 Zrotation Xrotation Yrotation
                    End Site
                    {
                        OFFSET -0.000000 0.000000 3.529846
                    }
                }
            }
        }
    }
    JOINT RightUpLeg
    {
        OFFSET -8.824615 0.000000 0.000000
        CHANNELS 3 Zrotation Xrotation Yrotation
        JOINT RightLeg
        {
            OFFSET -0.000000 -35.111282 0.000000
            CHANNELS 3 Zrotation Xrotation Yrotation
            JOINT RightFoot
            {
                OFFSET -0.000000 -42.324711 0.000000
                CHANNELS 3 Zrotation Xrotation Yrotation
                JOINT RightToeBase
                {
                    OFFSET -0.000000 -5.735999 13.236923
                    CHANNELS 3 Zrotation Xrotation Yrotation
                    End Site
                    {
                        OFFSET -0.000000 0.000000 3.529846
                    }
                }
            }
        }
    }
}
MOTION
Frames:    13
Frame Time:    0.008333
-26.097435    84.289101    108.395645    -1.924307    -9.077322    -177.843628    -2.007474    -10.546214    0.381016    -1.353676    3.650701    0.609548    2.225959    8.855122    -4.239070    6.846539    -5.419661    -3.272058    -2.045180    18.348896    -0.221741    -37.859344    49.835083    -42.753830    -0.949276    -4.117878    -20.431997    18.557907    -4.142003    0.899164    8.021920    18.553511    -5.804781    32.499004    51.393288    47.332047    -2.033378    -7.370510    21.353191    -15.213203    -6.674136    -2.382765    -4.485353    -15.272537    -8.760708    -0.020014    19.070284    5.915595    -1.428444    -10.227429    -10.005583    0.092655    0.006744    -0.102704    -3.656141    -10.548285    9.847914    4.286245    13.334374    2.775222    -2.333454    -8.553828    -19.745008    -0.694879    -1.902986    0.753562    
-26.029068    84.305511    108.377029    -1.870850    -9.043120    -177.816269    -1.956151    -10.559604    0.452873    -1.304257    3.631738    0.675128    2.310110    8.810416    -4.255770    6.499353    -5.283245    -3.369406    -2.052843    18.342148    -0.250324    -38.236191    49.762703    -42.768246    -0.936507    -4.254614    -20.142572    18.492868    -4.269942    0.927436    7.994492    18.514442    -5.636094    31.810179    51.719364    47.805355    -1.957699    -7.263506    21.266100    -14.912611    -6.594929    -2.337305    -4.384988    -15.191351    -8.910911    -0.063881    18.998337    6.096859    -1.486303    -10.197071    -10.019748    0.100825    -0.018601    -0.111764    -3.554497    -10.528637    9.425539    4.184710    13.386271    3.023207    -2.270014    -8.544180    -19.580671    -0.750199    -1.800812    0.813436    
-25.961702    84.321854    108.358345    -1.819621    -9.008503    -177.788177    -1.908696    -10.571973    0.521478    -1.254284    3.613065    0.737671    2.387167    8.769532    -4.271416    6.172714    -5.155030    -3.460042    -2.060211    18.336639    -0.278735    -38.600601    49.692108    -42.781788    -0.922243    -4.387350    -19.864834    18.415785    -4.393716    0.956816    7.968024    18.476635    -5.472721    31.130680    52.029007    48.270824    -1.883510    -7.158254    21.197371    -14.619133    -6.514820    -2.304097    -4.287074    -15.107403    -9.054341    -0.105210    18.922424    6.268570    -1.543151    -10.166295    -10.032608    0.109564    -0.042900    -0.121458    -3.457847    -10.503719    9.023051    4.090086    13.427756    3.250840    -2.209912    -8.532264    -19.417759    -0.803734    -1.702211    0.871361    
-25.895134    84.338287    108.339264    -1.771978    -8.972687    -177.757904    -1.867616    -10.583081    0.584967    -1.203079    3.594942    0.795775    2.454320    8.735178    -4.285418    5.875065    -5.041027    -3.541355    -2.067017    18.332331    -0.307777    -38.944389    49.623882    -42.796192    -0.909421    -4.513868    -19.605345    18.316353    -4.511635    0.988488    7.941765    18.440077    -5.316327    30.472286    52.316765    48.719284    -1.814435    -7.055491    21.152695    -14.335580    -6.433659    -2.284865    -4.192790    -15.016967    -9.186658    -0.141922    18.837797    6.424504    -1.599495    -10.134146    -10.043735    0.119534    -0.065766    -0.132515    -3.368518    -10.468550    8.648245    4.005589    13.451990    3.447459    -2.154532    -8.516854    -19.255354    -0.854722    -1.608627    0.926517    
-25.829697    84.354652    108.319687    -1.729801    -8.935723    -177.723679    -1.835318    -10.592445    0.641299    -1.151430    3.577351    0.847404    2.510910    8.707215    -4.297162    5.612062    -4.943807    -3.611690    -2.072561    18.328808    -0.337284    -39.256683    49.559494    -42.813469    -0.901326    -4.629243    -19.373838    18.192158    -4.619096    1.024496    7.915606    18.404970    -5.169803    29.853598    52.574623    49.136658    -1.753968    -6.955966    21.137983    -14.066070    -6.351460    -2.280326    -4.104321    -14.918766    -9.304115    -0.172440    18.742344    6.557996    -1.655386    -10.100450    -10.052212    0.131770    -0.086515    -0.146086    -3.288841    -10.419688    8.306264    3.932408    13.453700    3.606099    -2.105011    -8.497353    -19.093575    -0.902291    -1.521256    0.977960    
-25.765558    84.370789    108.299568    -1.694658    -8.898063    -177.683487    -1.813589    -10.600464    0.688802    -1.100279    3.560540    0.891320    2.557651    8.685074    -4.306448    5.385342    -4.864108    -3.670712    -2.076157    18.325890    -0.368120    -39.527821    49.499943    -42.835724    -0.900500    -4.727747    -19.180109    18.045763    -4.710299    1.068395    7.889312    18.371145    -5.035326    29.292662    52.796078    49.508659    -1.704591    -6.859919    21.158886    -13.813287    -6.268083    -2.289738    -4.023600    -14.812582    -9.404728    -0.195687    18.634954    6.664355    -1.711191    -10.065106    -10.057665    0.146830    -0.104636    -0.162786    -3.220252    -10.355024    7.996905    3.869757    13.429775    3.725936    -2.061895    -8.473752    -18.933411    -0.945860    -1.440629    1.025066    
-25.702789    84.386536    108.278908    -1.667473    -8.860341    -177.635086    -1.802875    -10.607802    0.726500    -1.051453    3.545077    0.926440    2.597712    8.666075    -4.313066    5.191536    -4.799603    -3.719429    -2.077404    18.322418    -0.400931    -39.750286    49.446373    -42.863636    -0.908930    -4.802678    -19.033875    17.883745    -4.778326    1.123803    7.863303    18.338112    -4.914678    28.805361    52.977074    49.821846    -1.669118    -6.768940    21.221544    -13.578330    -6.184868    -2.310900    -3.952054    -14.699238    -9.487312    -0.210806    18.515724    6.739693    -1.767400    -10.028184    -10.059730    0.165560    -0.120132    -0.183557    -3.163383    -10.273707    7.717873    3.816366    13.378939    3.810513    -2.025874    -8.446342    -18.778036    -0.985152    -1.366529    1.067538    
-25.641420    84.401764    108.257843    -1.648623    -8.823589    -177.576340    -1.802739    -10.615245    0.753668    -1.007023    3.531053    0.952289    2.633795    8.648024    -4.317184    5.027146    -4.747918    -3.759082    -2.075169    18.317791    -0.436307    -39.917679    49.399746    -42.898800    -0.927953    -4.848405    -18.944721    17.710632    -4.817480    1.193075    7.837589    18.305548    -4.809524    28.407385    53.113205    50.063168    -1.648099    -6.684258    21.332014    -13.361857    -6.103497    -2.339100    -3.890537    -14.580670    -9.552321    -0.217704    18.386093    6.782362    -1.824638    -9.990210    -10.058567    0.188389    -0.132296    -0.208872    -3.118312    -10.176316    7.465152    3.770647    13.301637    3.865748    -1.997314    -8.415778    -18.631081    -1.019857    -1.299370    1.105040    
-25.580996    84.416473    108.236298    -1.637549    -8.788361    -177.504883    -1.811856    -10.623796    0.770363    -0.968593    3.518992    0.968689    2.667870    8.629593    -4.319265    4.888702    -4.707173    -3.791185    -2.068748    18.311642    -0.475562    -40.025871    49.360043    -42.942043    -0.957672    -4.860614    -18.922358    17.525175    -4.823470    1.277330    7.812180    18.272671    -4.720024    28.109797    53.202137    50.221344    -1.642132    -6.607914    21.498634    -13.163076    -6.026404    -2.368853    -3.838547    -14.458134    -9.600746    -0.216596    18.246775    6.791343    -1.883772    -9.951172    -10.054228    0.215838    -0.141450    -0.239310    -3.083902    -10.063110    7.233325    3.730752    13.198584    3.897343    -1.976368    -8.382628    -18.494524    -1.050354    -1.237768    1.137986    
-25.521425    84.430664    108.214424    -1.633348    -8.755411    -177.418991    -1.828190    -10.633904    0.776672    -0.938280    3.508951    0.975587    2.701036    8.609111    -4.319929    4.774617    -4.675300    -3.816893    -2.057251    18.303749    -0.519435    -40.071472    49.327236    -42.993343    -0.997055    -4.835308    -18.977446    17.326374    -4.792342    1.376838    7.787079    18.238441    -4.646784    27.923912    53.242203    50.285191    -1.651380    -6.543005    21.729855    -12.983395    -5.957076    -2.394538    -3.795446    -14.334016    -9.634014    -0.208115    18.100214    6.766300    -1.945072    -9.911711    -10.046820    0.247331    -0.147548    -0.274231    -3.058832    -9.935400    7.018814    3.695246    13.071444    3.909499    -1.963158    -8.347598    -18.370085    -1.077026    -1.180817    1.166790    
-25.464109    84.444031    108.192894    -1.634511    -8.726114    -177.320511    -1.848597    -10.645702    0.773285    -0.918090    3.501310    0.973645    2.733505    8.586474    -4.319801    4.684625    -4.652009    -3.836974    -2.040395    18.293648    -0.567048    -40.055679    49.302345    -43.049736    -1.042099    -4.771843    -19.114609    17.119400    -4.723494    1.488035    7.762838    18.203220    -4.591623    27.854902    53.234158    50.251144    -1.674526    -6.493849    22.025444    -12.829966    -5.900409    -2.410610    -3.760683    -14.213820    -9.653855    -0.193897    17.952913    6.710954    -2.006614    -9.873320    -10.037545    0.280642    -0.151649    -0.311168    -3.041812    -9.798616    6.824534    3.664291    12.926141    3.904895    -1.957963    -8.311969    -18.261276    -1.100048    -1.128873    1.191643    
-25.406282    84.457253    108.170830    -1.639529    -8.699471    -177.204468    -1.871515    -10.659957    0.760821    -0.908243    3.495833    0.963209    2.767712    8.559719    -4.319395    4.612126    -4.635241    -3.853536    -2.016282    18.280193    -0.621082    -39.979740    49.284523    -43.111385    -1.090374    -4.664573    -19.350267    16.896751    -4.610644    1.615749    7.738031    18.164757    -4.551860    27.900997    53.178425    50.113941    -1.711670    -6.461662    22.409092    -12.701532    -5.857561    -2.412823    -3.731004    -14.094049    -9.663288    -0.174551    17.800716    6.624489    -2.070230    -9.834628    -10.026767    0.314585    -0.154829    -0.348804    -3.030128    -9.647887    6.639968    3.635745    12.757794    3.883895    -1.960111    -8.274554    -18.162188    -1.121012    -1.078875    1.214268    
-25.353504    84.469185    108.150505    -1.646212    -8.678052    -177.083832    -1.892466    -10.675124    0.742044    -0.909368    3.493028    0.946724    2.801344    8.531446    -4.319092    4.559704    -4.626246    -3.866251    -1.987457    18.264290    -0.675832    -39.858475    49.275200    -43.169212    -1.131787    -4.525776    -19.662493    16.684874    -4.466253    1.744584    7.714814    18.126284    -4.529664    28.044893    53.086506    49.895569    -1.757284    -6.451723    22.845943    -12.615481    -5.835264    -2.396735    -3.707390    -13.987497    -9.663466    -0.153106    17.660194    6.520429    -2.128510    -9.799155    -10.017547    0.343024    -0.157780    -0.380338    -3.022579    -9.500176    6.481280    3.611327    12.585833    3.849159    -1.967745    -8.239142    -18.079315    -1.138122    -1.035659    1.232726    
